<svg width="1010" height="1010" viewBox="0 0 1010 1010" fill="none" xmlns="http://www.w3.org/2000/svg">
<path d="M994.11 505.063C994.11 775.156 775.156 994.11 505.063 994.11C234.97 994.11 16.0156 775.156 16.0156 505.063C16.0156 234.97 234.97 16.0156 505.063 16.0156C775.156 16.0156 994.11 234.97 994.11 505.063Z" fill="#44CCFF" stroke="white" stroke-width="29"/>
<path d="M316.244 636.217H440.08C459.469 636.217 471.977 625.585 471.977 607.447C471.977 589.309 459.469 578.677 440.08 578.677H351.894V387.294C351.894 363.527 338.76 349.768 316.244 349.768C293.728 349.768 279.969 363.527 279.969 387.294V598.691C279.969 622.457 293.103 636.217 316.244 636.217Z" fill="white"/>
<path d="M428.822 559.288C451.338 559.288 464.472 545.529 464.472 521.762V305.987C464.472 282.221 451.338 268.461 428.822 268.461C406.306 268.461 392.547 282.221 392.547 305.987V521.762C393.172 545.529 406.306 559.288 428.822 559.288Z" fill="white"/>
<path d="M541.4 636.217C563.916 636.217 577.05 622.457 577.05 598.691V549.281H623.332C685.876 549.281 729.031 509.879 729.031 449.837C729.031 389.17 687.752 349.768 627.71 349.768H541.4C518.884 349.768 505.125 363.527 505.125 387.294V598.691C505.75 622.457 518.884 636.217 541.4 636.217ZM577.675 495.494V404.806H608.947C638.968 404.806 657.106 420.442 657.106 449.837C657.106 479.233 638.968 494.869 608.322 494.869L577.675 495.494Z" fill="white"/>
<path d="M548.281 742.541C507.628 742.541 468.851 723.778 443.208 691.881C432.575 678.122 434.452 658.733 448.211 648.101C461.971 637.468 481.359 639.345 491.992 653.104C506.377 671.242 528.893 681.249 552.034 679.998C570.797 678.747 588.309 670.617 601.443 656.231C614.577 641.846 620.831 623.709 619.581 604.32C618.33 586.808 631.464 572.423 648.976 571.172C665.863 569.921 680.873 583.056 682.124 600.568C684 636.218 672.117 670.616 648.351 697.51C624.584 724.404 591.436 740.665 555.786 742.541C553.284 742.541 550.783 742.541 548.281 742.541Z" fill="white"/>
<path d="M182.402 324.75L153.006 306.613C149.254 304.111 148.003 300.358 150.505 296.606C153.006 292.853 156.759 292.228 160.512 294.73L186.154 310.991L193.034 299.733C194.911 296.606 198.038 295.355 201.165 297.231C204.292 299.108 204.918 302.235 202.416 305.362L191.783 322.874C190.533 326.627 186.78 327.252 182.402 324.75Z" fill="white"/>
<path d="M193.659 287.224C184.278 279.719 182.401 269.087 189.906 260.33C196.786 251.574 207.419 249.698 214.924 255.952C217.426 257.829 218.051 260.33 215.549 263.458L203.666 278.468L204.291 279.093C207.419 281.595 210.546 280.97 213.048 277.843C214.924 275.341 215.549 273.465 215.549 269.712C215.549 267.836 215.549 266.585 216.8 265.334C218.676 263.458 221.178 262.207 223.68 264.083C224.305 264.708 224.931 265.334 225.556 266.585C227.433 270.963 225.556 277.843 220.553 283.471C213.048 293.478 203.041 294.729 193.659 287.224ZM204.917 264.708C202.415 262.832 199.288 263.458 196.786 265.959C194.91 268.461 194.91 271.588 197.412 274.09L204.917 264.708Z" fill="white"/>
<path d="M224.307 259.704C219.303 254.7 220.554 247.821 226.809 240.315L232.437 234.061L231.187 232.81C229.31 230.934 227.434 231.559 225.558 233.436C224.307 234.687 223.681 235.937 223.681 239.065C223.681 241.566 223.056 242.817 221.18 244.694C218.678 247.195 215.551 247.195 213.674 245.319C213.049 244.694 213.049 244.068 212.424 243.443C209.922 239.065 212.424 232.81 218.678 225.931C225.558 218.425 234.314 217.174 239.943 222.178L253.702 235.937C256.829 239.065 256.829 242.817 253.702 245.944C251.2 248.446 248.073 249.072 244.946 246.57C246.197 250.322 244.321 255.326 241.194 257.828C236.815 263.457 229.31 264.707 224.307 259.704ZM239.317 241.566L237.441 239.69L233.688 244.068C231.812 245.944 231.812 247.821 233.063 249.072C234.314 250.322 236.19 250.322 238.066 248.446C240.568 246.57 241.194 243.443 239.317 241.566Z" fill="white"/>
<path d="M256.829 233.436L240.568 214.673C237.441 211.546 238.066 207.793 241.193 205.292C244.32 202.79 247.447 202.79 250.575 206.543L251.2 207.793C248.698 203.415 248.698 199.663 251.2 197.161C252.451 196.536 253.076 195.91 254.327 195.91C256.204 195.91 257.454 196.536 259.331 198.412C260.582 200.288 261.207 201.539 261.207 203.415C261.207 205.292 259.956 206.543 258.08 208.419C255.578 210.921 255.578 212.171 258.08 215.299L266.211 225.306C269.338 229.058 268.712 232.185 265.585 235.313C262.458 238.44 259.956 237.189 256.829 233.436Z" fill="white"/>
<path d="M278.72 215.298L264.335 195.285C261.833 191.532 262.458 188.405 265.586 185.903C269.338 183.401 273.091 184.027 275.593 187.779L276.218 188.405C274.967 182.776 276.218 179.023 280.596 175.896C287.476 170.893 294.356 172.769 299.359 180.274L309.366 194.659C311.868 198.412 311.242 202.164 308.115 204.666C304.988 207.168 301.235 206.542 298.108 202.79L289.978 190.906C288.101 187.779 284.974 187.154 282.472 189.03C279.971 190.906 279.345 194.034 281.847 197.161L289.978 209.044C292.479 212.797 291.854 216.549 288.727 219.051C284.974 219.051 281.221 219.051 278.72 215.298Z" fill="white"/>
<path d="M325.627 184.028L309.366 152.756C306.864 148.378 308.115 145.251 311.868 142.749C315.62 140.873 319.373 141.498 321.875 145.876L338.136 177.148C340.638 181.526 339.387 184.653 335.634 187.155C331.256 189.657 327.504 188.406 325.627 184.028Z" fill="white"/>
<path d="M343.138 174.645L333.757 152.13C331.88 148.377 333.131 144.624 336.884 143.374C340.636 141.497 344.389 142.748 346.265 147.126L346.891 147.752C346.891 142.123 348.767 138.37 353.771 136.494C361.276 133.367 367.53 136.494 371.283 144.624L378.162 160.886C380.039 165.264 378.162 168.391 374.41 170.267C370.657 172.144 366.905 170.893 365.028 166.515L359.399 153.381C358.149 150.253 355.647 148.377 352.52 149.628C349.392 150.879 348.767 154.006 350.018 157.133L355.647 170.267C357.523 174.645 355.647 177.773 351.894 179.649C348.767 180.274 345.014 179.023 343.138 174.645Z" fill="white"/>
<path d="M395.051 154.007L386.294 120.859C385.044 116.481 386.92 112.728 391.298 112.103L405.683 108.35C416.315 105.849 425.071 110.852 427.573 120.859C430.075 131.492 424.446 139.622 413.188 142.749L406.308 144.626L408.185 150.88C409.436 155.258 407.559 159.011 403.181 159.636C399.429 160.261 396.301 158.385 395.051 154.007ZM408.81 132.742C413.188 131.492 415.69 128.364 414.439 123.986C413.188 119.608 410.061 117.732 405.683 118.983L401.93 120.234L405.683 133.993L408.81 132.742Z" fill="white"/>
<path d="M438.204 144L434.451 119.608C433.826 115.23 436.328 112.103 440.08 112.103C443.833 111.477 446.96 113.354 447.585 117.732V118.983C447.585 113.354 449.462 110.852 453.214 110.227C454.465 110.227 455.716 110.227 456.967 110.852C458.218 111.477 459.469 113.354 460.094 115.855C460.719 117.732 460.094 119.608 458.843 120.859C457.592 122.11 455.716 123.361 453.214 123.361C449.462 123.986 448.836 125.237 449.462 129.615L451.338 142.124C451.963 146.502 450.087 149.629 445.709 150.254C441.956 150.254 438.829 148.378 438.204 144Z" fill="white"/>
<path d="M463.848 127.737C463.222 115.854 470.102 107.723 481.986 107.098C493.869 106.472 502 113.352 502.625 125.235C503.25 137.744 496.371 145.249 484.487 145.875C472.604 146.5 464.473 140.246 463.848 127.737ZM488.865 125.861C488.24 119.607 486.364 116.479 482.611 116.479C479.484 116.479 477.607 120.232 477.607 126.486C478.233 132.741 480.109 135.868 483.862 135.868C487.614 135.868 489.491 132.115 488.865 125.861Z" fill="white"/>
<path d="M521.388 113.979L520.762 146.501C520.762 153.381 515.759 158.384 508.879 158.384H508.254C502.625 158.384 500.123 156.508 500.123 152.755C500.123 150.254 501.374 149.003 503.876 148.377H504.501C505.752 148.377 507.003 147.127 507.003 145.876L507.628 113.979C507.628 108.975 510.755 107.099 514.508 107.099C518.886 106.473 521.388 108.975 521.388 113.979ZM508.254 97.7172C508.254 93.9646 511.381 91.4629 515.133 91.4629C518.886 91.4629 522.013 94.5901 522.013 98.3427C522.013 102.095 518.886 104.597 515.133 104.597C510.755 103.972 508.254 101.47 508.254 97.7172Z" fill="white"/>
<path d="M526.392 126.488C527.643 114.605 535.773 107.725 547.031 108.976C558.289 110.227 565.169 118.357 563.918 128.364C563.293 131.492 561.416 133.368 558.289 132.742L538.901 130.866V131.492C538.275 135.244 540.777 137.746 544.529 138.371C547.657 138.997 549.533 137.746 552.66 135.87C554.536 134.619 555.162 134.619 557.038 134.619C559.54 134.619 562.042 137.12 561.416 139.622C561.416 140.873 560.791 141.498 560.165 142.749C557.038 146.502 550.784 148.378 543.279 147.753C531.395 145.877 525.141 138.371 526.392 126.488ZM551.409 123.986C551.409 120.859 549.533 118.357 546.406 117.732C543.279 117.107 540.777 119.608 540.151 122.735L551.409 123.986Z" fill="white"/>
<path d="M568.296 130.864C570.798 118.981 579.554 113.352 591.437 115.854C598.942 117.73 604.571 122.108 605.822 127.737C605.822 128.988 606.447 130.239 605.822 131.49C605.197 134.617 602.069 135.868 598.942 135.242C596.441 134.617 595.19 133.366 593.939 130.864C592.688 127.737 591.437 126.486 589.561 125.861C585.808 125.235 583.306 127.737 582.055 133.366C580.805 139.62 582.055 142.748 585.808 143.373C588.31 143.998 590.186 142.748 592.062 141.497C594.564 139.62 595.815 138.37 598.942 138.995C602.069 139.62 603.946 142.122 603.32 145.249C603.32 146.5 602.695 147.126 601.444 148.377C597.691 152.755 590.812 154.631 583.306 152.755C570.798 151.504 565.169 142.748 568.296 130.864Z" fill="white"/>
<path d="M614.577 133.366H613.952C610.825 132.741 609.574 130.239 610.825 127.112C611.45 123.985 613.952 122.734 617.079 123.985H617.705L618.33 122.108C619.581 117.73 622.708 115.854 627.086 117.105C631.464 118.356 632.715 121.483 631.464 125.861L630.839 127.737L633.34 128.363C636.468 128.988 637.718 131.49 636.468 134.617C635.842 137.744 633.34 138.995 630.213 137.744L627.711 137.119L623.333 150.253C622.708 152.129 623.333 153.38 624.584 154.006L625.21 154.631C627.711 155.882 628.962 157.758 628.337 160.885C627.086 164.638 622.083 165.264 617.079 163.387C610.199 160.885 607.697 156.507 609.574 149.628L614.577 133.366Z" fill="white"/>
<path d="M650.227 153.382C651.478 149.629 655.231 149.004 658.358 150.88L668.365 155.258C671.492 156.509 673.369 159.636 671.492 163.389C670.241 166.516 666.489 167.767 663.362 165.89L653.355 161.512C650.227 159.636 648.977 156.509 650.227 153.382Z" fill="white"/>
<path d="M684.626 183.402L702.764 154.006C705.265 150.254 709.018 149.003 712.771 151.505C716.523 154.006 717.149 157.759 714.647 161.512L698.386 187.154L709.643 194.034C712.771 195.911 714.021 199.038 712.145 202.165C710.269 205.292 707.142 205.918 704.014 203.416L686.502 192.783C682.75 190.907 682.124 187.154 684.626 183.402Z" fill="white"/>
<path d="M722.153 194.034C729.658 184.653 740.291 182.776 749.047 190.281C758.428 197.161 759.679 207.794 753.425 215.299C751.548 217.801 749.047 218.426 745.919 215.924L730.909 204.041L730.284 204.666C727.782 207.794 728.407 210.921 731.534 213.423C734.036 215.299 735.912 215.924 739.665 215.924C741.541 215.924 742.792 215.924 744.043 217.175C745.919 219.051 747.17 221.553 745.294 224.055C744.669 224.68 744.043 225.306 742.792 225.931C738.414 227.808 731.534 225.931 725.905 220.928C715.899 213.423 714.648 203.416 722.153 194.034ZM744.668 205.917C746.545 203.416 745.919 200.288 743.418 197.787C740.916 195.91 737.789 195.91 735.287 198.412L744.668 205.917Z" fill="white"/>
<path d="M749.672 225.307C754.675 220.303 761.555 220.929 769.06 227.809L775.314 232.812L776.565 231.561C778.442 229.685 777.816 227.809 775.94 225.932C774.689 224.681 773.438 224.056 769.685 224.056C767.809 224.056 765.933 223.43 764.057 222.18C761.555 219.678 761.555 216.551 763.431 214.674C764.057 214.049 764.682 214.049 765.307 213.424C769.686 210.922 775.94 213.424 782.82 219.678C790.325 226.558 791.576 235.314 786.572 240.943L773.438 254.702C770.311 257.829 766.558 257.829 763.431 254.702C760.929 252.2 760.304 249.073 762.806 245.946C759.053 247.197 754.05 245.321 751.548 242.194C745.919 237.19 744.668 229.685 749.672 225.307ZM767.809 239.692L769.685 237.815L765.307 234.063C763.431 232.187 761.555 232.187 760.304 233.437C759.053 234.688 759.053 236.565 760.929 238.441C762.806 240.943 765.933 241.568 767.809 239.692Z" fill="white"/>
<path d="M775.941 257.829L794.704 241.568C797.831 238.441 801.584 239.066 804.085 242.193C806.587 245.32 806.587 248.447 802.835 251.575L801.584 252.2C805.962 249.073 809.714 249.698 812.216 252.2C812.841 253.451 813.467 254.076 813.467 255.327C813.467 257.204 812.842 258.454 810.965 260.331C809.089 261.582 807.838 262.207 805.962 262.207C804.085 262.207 802.835 260.956 800.958 259.08C798.456 256.578 797.206 256.578 794.078 259.08L784.071 267.211C780.319 270.338 777.192 269.712 774.065 266.585C772.188 264.083 772.188 260.956 775.941 257.829Z" fill="white"/>
<path d="M794.703 279.093L814.717 264.708C818.469 262.206 821.597 262.831 824.098 265.959C826.6 269.711 825.975 273.464 822.222 275.966L821.597 276.591C827.225 275.34 830.978 276.591 834.105 280.969C839.109 287.849 837.232 294.729 829.727 299.732L815.342 309.739C811.59 312.241 807.837 311.615 805.335 308.488C802.834 305.361 803.459 301.608 807.212 298.481L819.095 290.351C822.222 288.474 822.847 285.347 820.971 282.845C819.095 280.344 815.968 279.718 812.841 282.22L800.957 290.351C797.205 292.852 793.452 292.227 790.95 289.1C790.325 285.347 790.325 282.22 794.703 279.093Z" fill="white"/>
<path d="M825.974 326L857.246 309.739C861.624 307.237 864.751 308.488 867.253 312.241C869.129 315.993 868.504 319.746 864.126 322.248L832.854 339.134C828.476 341.636 825.349 340.385 822.847 336.633C820.346 331.629 821.596 328.502 825.974 326Z" fill="white"/>
<path d="M834.73 343.513L857.246 334.132C860.998 332.255 864.751 333.506 866.002 337.259C867.878 341.011 866.627 344.764 862.249 346.64L861.624 347.266C867.253 346.64 871.005 349.142 872.882 354.146C876.009 361.651 872.882 367.905 864.751 371.658L848.49 378.537C844.112 380.414 840.984 378.538 839.108 374.785C837.232 371.032 838.483 367.28 842.861 365.403L855.995 359.774C859.122 358.524 860.998 356.022 859.747 352.895C858.497 349.767 855.369 349.142 852.242 350.393L839.108 356.022C834.73 357.898 831.603 356.022 829.727 352.269C829.727 349.142 830.352 345.389 834.73 343.513Z" fill="white"/>
<path d="M855.996 395.424L889.144 386.668C893.522 385.417 897.275 387.293 897.9 391.671L901.653 406.056C904.155 416.688 899.151 425.445 889.144 427.946C878.512 430.448 870.381 424.819 867.254 413.561L865.378 406.681L859.123 408.558C854.745 409.809 850.993 407.932 850.367 403.554C849.742 399.802 851.618 396.674 855.996 395.424ZM877.261 409.183C878.512 413.561 881.639 416.063 886.017 414.812C890.395 413.561 892.271 410.434 891.021 406.056L889.77 402.303L876.01 406.056L877.261 409.183Z" fill="white"/>
<path d="M866.002 438.579L890.394 434.826C894.772 434.201 897.899 436.703 897.899 440.455C898.524 444.208 896.648 447.335 892.27 447.96H891.019C896.648 447.96 899.15 449.837 899.775 453.589C899.775 454.84 899.775 456.091 899.15 457.342C898.524 458.593 896.648 459.844 894.146 460.469C892.27 461.095 890.394 460.469 889.143 459.218C887.892 457.967 886.641 456.091 886.641 453.589C886.016 449.837 884.765 449.211 880.387 449.837L867.878 451.713C863.5 452.338 860.373 450.462 859.747 446.084C859.122 442.331 861.624 439.204 866.002 438.579Z" fill="white"/>
<path d="M882.264 464.223C894.148 463.597 902.278 470.477 902.904 482.361C903.529 494.244 896.649 502.375 884.766 503C872.257 503.625 864.752 496.746 864.127 484.862C863.501 472.354 869.756 464.848 882.264 464.223ZM884.141 489.24C890.395 488.615 893.522 486.739 893.522 482.986C893.522 479.859 889.77 477.983 883.515 477.983C877.261 478.608 874.134 480.484 874.134 484.237C874.134 487.364 877.886 489.24 884.141 489.24Z" fill="white"/>
<path d="M896.023 521.763L863.5 521.137C855.995 521.137 851.617 516.134 851.617 509.254V508.629C851.617 503 853.493 500.498 857.246 500.498C859.748 500.498 860.999 501.749 861.624 504.251V504.876C861.624 506.127 862.875 507.378 864.126 507.378L896.023 508.003C901.027 508.003 902.903 511.13 902.903 514.883C903.528 519.261 901.027 521.763 896.023 521.763ZM912.284 508.629C916.037 508.629 918.539 511.756 918.539 515.509C918.539 519.261 915.412 522.388 911.659 522.388C907.906 522.388 905.405 519.261 905.405 515.509C906.03 511.131 908.532 508.629 912.284 508.629Z" fill="white"/>
<path d="M884.141 526.765C896.024 528.016 902.904 536.146 901.653 547.404C900.402 558.662 892.272 565.542 882.265 564.291C879.138 563.666 877.261 561.789 877.887 558.662L879.763 539.274H879.138C875.385 538.648 872.883 541.15 872.258 544.903C871.632 548.03 872.883 549.906 874.76 553.033C876.01 554.91 876.01 555.535 876.01 557.411C876.01 559.913 873.509 562.415 871.007 561.789C869.756 561.789 869.131 561.164 867.88 560.538C864.127 557.411 862.251 551.157 862.876 543.652C864.127 531.768 871.632 525.514 884.141 526.765ZM886.017 552.408C889.145 552.408 891.646 550.531 892.272 547.404C892.897 544.277 890.395 541.775 887.268 541.15L886.017 552.408Z" fill="white"/>
<path d="M879.761 568.671C891.644 571.173 897.273 579.929 894.771 591.812C892.895 599.317 888.517 604.946 882.888 606.197C881.637 606.197 880.387 606.823 879.136 606.197C876.008 605.572 874.758 602.444 875.383 599.317C876.009 596.815 877.259 595.565 879.761 594.314C882.888 593.063 884.139 591.812 884.765 589.936C885.39 586.183 882.888 583.681 877.259 582.43C871.005 581.18 867.878 582.43 867.252 586.183C866.627 588.685 867.878 590.561 869.129 592.437C871.005 594.939 872.256 596.19 871.63 599.317C871.005 602.444 868.503 604.321 865.376 603.695C864.125 603.695 863.5 603.07 862.249 601.819C857.871 598.066 855.995 591.187 857.871 583.681C859.122 571.173 867.252 565.544 879.761 568.671Z" fill="white"/>
<path d="M877.26 614.952V614.327C877.886 611.2 880.387 609.949 883.515 611.2C886.642 611.825 887.893 614.327 886.642 617.454V618.08L888.518 618.705C892.896 619.956 894.772 623.083 893.522 627.461C892.271 631.839 889.144 633.09 884.766 631.839L882.889 631.214L882.264 633.715C881.638 636.843 879.137 638.094 876.009 636.843C872.882 636.217 871.631 633.715 872.882 630.588L873.508 628.087L860.373 623.708C858.497 623.083 857.246 623.709 856.621 624.959L855.995 625.585C854.745 628.087 852.868 629.337 849.741 628.712C845.989 627.461 845.363 622.458 847.239 617.454C849.741 610.574 854.119 608.072 860.999 609.949L877.26 614.952Z" fill="white"/>
<path d="M856.621 650.602C860.373 651.853 860.999 655.606 859.123 658.733L854.745 668.74C853.494 671.867 850.366 673.743 846.614 671.867C843.487 670.616 842.236 666.864 844.112 663.737L848.49 653.73C850.366 650.602 853.494 649.352 856.621 650.602Z" fill="white"/>
<path d="M827.226 685.001L856.621 703.139C860.374 705.64 861.625 709.393 859.123 713.146C856.621 716.898 852.869 717.524 849.116 715.022L823.473 698.761L816.593 710.018C814.717 713.146 811.59 714.397 808.463 712.52C805.335 710.644 804.71 707.517 807.212 704.39L817.844 686.877C819.095 683.125 822.848 682.499 827.226 685.001Z" fill="white"/>
<path d="M816.593 722.528C825.975 730.033 827.851 740.666 820.346 749.422C813.466 758.803 802.834 760.054 795.328 753.8C792.827 751.923 792.201 749.422 794.703 746.294L806.586 731.284L805.961 730.659C802.834 728.157 799.707 728.782 797.205 731.909C795.328 734.411 794.703 736.287 794.703 740.04C794.703 741.916 794.703 743.167 793.452 744.418C791.576 746.294 789.074 747.545 786.572 745.669C785.947 745.044 785.322 744.418 784.696 743.167C782.82 738.789 784.696 731.909 789.7 726.281C796.579 716.274 806.586 715.023 816.593 722.528ZM804.71 745.044C807.212 746.92 810.339 746.294 812.841 743.793C814.717 741.291 814.717 738.164 812.215 735.662L804.71 745.044Z" fill="white"/>
<path d="M785.321 750.047C790.324 755.05 789.699 761.93 782.819 769.435L777.816 775.69L779.067 776.941C780.943 778.817 782.819 778.192 784.696 776.315C785.946 775.064 786.572 773.813 786.572 770.061C786.572 767.559 787.197 766.308 788.448 764.432C790.95 761.93 794.077 761.93 795.953 763.807C796.579 764.432 797.204 765.057 797.204 765.683C799.706 770.061 797.204 776.315 790.95 783.195C784.07 790.7 775.314 791.951 769.685 786.948L755.925 773.813C752.798 770.686 752.798 766.934 755.925 763.807C758.427 761.305 761.554 760.679 764.682 763.181C763.431 759.428 765.307 754.425 768.434 751.923C773.438 746.294 780.317 745.669 785.321 750.047ZM770.311 768.81L772.187 770.686L775.939 766.308C777.816 764.432 777.816 762.556 776.565 761.305C775.314 760.054 773.438 760.054 771.561 761.93C769.685 763.807 768.434 766.934 770.311 768.81Z" fill="white"/>
<path d="M752.799 776.314L769.06 795.077C772.187 798.204 771.562 801.957 768.435 804.459C765.307 806.96 762.18 806.96 759.053 803.208L758.428 801.957C760.93 806.335 760.93 810.088 758.428 812.589C757.177 813.215 756.551 813.84 755.301 813.84C753.424 813.84 752.173 813.215 750.297 811.338C749.046 809.462 748.421 808.211 748.421 806.335C748.421 804.459 749.672 803.208 751.548 801.332C754.05 798.83 754.05 797.579 751.548 794.452L743.417 784.445C740.29 780.692 740.916 777.565 744.043 774.438C745.919 773.187 749.672 773.187 752.799 776.314Z" fill="white"/>
<path d="M731.534 795.078L745.919 815.092C748.421 818.844 747.795 821.972 744.668 824.473C740.915 826.975 737.163 826.35 734.661 822.597L734.036 821.972C735.286 827.601 734.036 831.353 729.658 834.48C722.778 839.484 715.898 837.608 710.895 830.728L700.888 816.343C697.76 812.59 699.011 808.837 702.138 806.336C705.266 803.834 709.018 804.459 712.145 808.212L720.276 820.095C722.152 823.223 725.28 823.848 727.781 821.972C730.283 820.095 730.908 816.968 728.407 813.841L720.276 801.958C717.774 798.205 718.4 794.452 721.527 791.951C724.654 791.325 728.407 791.325 731.534 795.078Z" fill="white"/>
<path d="M684.627 826.349L701.513 857.621C704.015 861.999 702.764 865.126 699.012 867.628C695.259 869.504 691.506 868.879 689.005 864.501L672.118 833.229C669.616 828.851 670.867 825.724 674.62 823.222C678.372 821.346 682.125 821.971 684.627 826.349Z" fill="white"/>
<path d="M667.114 835.731L677.121 858.247C678.997 862 677.746 865.752 673.993 867.003C670.241 868.879 666.488 867.629 664.612 863.251L663.986 862.625C664.612 868.254 662.11 872.007 657.107 873.883C649.601 877.01 643.347 874.508 639.594 865.752L632.715 849.491C630.838 845.113 632.715 841.986 636.467 840.109C640.22 838.233 643.972 839.484 645.849 843.862L651.478 856.996C652.729 860.123 655.23 862 658.357 860.749C661.485 859.498 662.11 856.371 660.859 853.244L655.23 840.109C653.354 835.731 655.23 832.604 658.983 830.728C662.735 828.852 665.237 831.353 667.114 835.731Z" fill="white"/>
<path d="M615.204 856.996L623.96 890.144C625.211 894.522 623.334 898.275 618.956 898.9L604.571 902.653C593.939 905.155 585.183 900.777 582.681 890.144C580.179 879.512 585.808 871.381 596.441 868.254L603.32 866.378L601.444 860.123C600.193 855.745 602.07 851.993 606.448 851.367C610.826 850.117 613.953 851.993 615.204 856.996ZM601.444 877.636C597.066 878.887 594.564 882.014 595.815 886.392C597.066 890.77 600.193 892.646 604.571 891.395L608.324 890.144L604.571 876.385L601.444 877.636Z" fill="white"/>
<path d="M572.048 867.002L575.8 891.394C576.426 895.772 573.924 898.899 570.171 899.525C566.419 900.15 563.292 898.274 562.666 893.896V892.645C562.666 898.274 560.79 900.776 557.037 901.401C555.786 901.401 554.536 901.401 553.285 900.776C552.034 900.15 550.783 898.274 550.157 895.772C549.532 893.896 550.157 892.02 551.408 890.769C552.659 889.518 554.535 888.267 557.037 888.267C560.79 887.642 561.415 886.391 560.79 882.013L558.914 869.504C558.288 865.126 560.164 861.999 564.542 861.373C568.295 860.122 571.422 861.999 572.048 867.002Z" fill="white"/>
<path d="M546.404 883.264C547.03 895.148 540.15 903.278 528.267 903.904C516.383 904.529 508.253 897.649 507.627 885.766C507.002 873.257 513.881 865.752 525.765 865.127C537.648 864.501 545.779 870.756 546.404 883.264ZM521.387 884.515C522.012 890.77 523.889 893.897 527.641 893.897C530.768 893.897 532.645 890.144 532.645 883.89C532.019 877.635 530.143 874.508 526.39 874.508C523.263 875.134 521.387 878.886 521.387 884.515Z" fill="white"/>
<path d="M502 913.284C502 917.037 498.873 919.539 495.12 919.539C491.367 919.539 488.24 916.412 488.24 912.659C488.24 908.906 491.367 906.405 495.12 906.405C498.873 906.405 502 909.532 502 913.284ZM488.866 897.023L489.491 864.5C489.491 857.621 494.495 852.617 501.374 852.617H502C507.629 852.617 510.13 854.493 510.13 858.246C510.13 860.748 508.88 861.999 506.378 862.624H505.752C504.502 862.624 503.251 863.875 503.251 865.126L502.625 897.023C502.625 902.027 499.498 903.903 495.746 903.903C491.367 904.528 488.866 902.027 488.866 897.023Z" fill="white"/>
<path d="M483.862 885.141C482.611 897.024 474.48 903.904 463.222 902.653C451.964 901.402 445.085 893.272 446.336 883.265C446.961 880.138 448.837 878.261 451.964 878.887L471.353 880.763V880.138C471.978 876.385 469.477 873.883 465.724 873.258C462.597 873.258 460.721 873.883 457.593 875.76C455.717 877.01 455.092 877.01 453.215 877.01C450.714 877.01 448.212 874.509 448.837 872.007C448.837 870.756 449.463 870.131 450.088 868.88C453.215 865.127 459.47 863.251 466.975 863.876C478.858 865.127 485.112 872.632 483.862 885.141ZM458.844 887.017C458.844 890.145 460.721 892.646 463.848 893.272C466.975 893.897 469.477 891.395 470.102 888.268L458.844 887.017Z" fill="white"/>
<path d="M442.583 880.761C440.082 892.644 431.326 898.273 419.442 895.771C411.937 893.895 406.308 889.517 405.057 883.888C405.057 882.637 404.432 881.387 405.057 880.136C405.683 877.008 408.81 875.758 411.937 876.383C414.439 877.009 415.69 878.259 416.941 880.761C418.191 883.888 419.442 885.139 421.319 885.765C425.071 886.39 427.573 883.888 428.824 878.259C430.075 872.005 428.824 868.878 425.071 868.252C422.569 867.627 420.693 868.878 418.817 870.129C416.315 872.005 415.064 873.256 411.937 872.63C408.81 872.005 406.934 869.503 407.559 866.376C407.559 865.125 408.184 864.5 409.435 863.249C413.188 858.871 420.068 856.995 427.573 858.871C439.456 860.122 445.085 868.878 442.583 880.761Z" fill="white"/>
<path d="M395.674 878.26H396.3C399.427 878.886 400.678 881.387 399.427 884.515C398.801 887.642 396.3 888.893 393.172 887.642H392.547L391.922 889.518C390.671 893.896 387.544 895.772 383.166 894.522C378.788 893.271 377.537 890.144 378.787 885.766L379.413 883.889L376.911 883.264C373.784 882.638 372.533 880.137 373.784 877.009C374.409 873.882 376.911 872.631 380.038 873.882L382.54 874.508L386.918 861.373C387.544 859.497 386.918 858.246 385.667 857.621L385.042 856.995C382.54 855.745 381.289 853.868 381.915 850.741C383.165 846.989 388.169 846.363 393.172 848.239C400.052 850.741 402.554 855.119 400.678 861.999L395.674 878.26Z" fill="white"/>
<path d="M360.025 858.246C358.774 861.998 355.022 862.624 351.894 860.748L341.888 856.37C338.76 855.119 336.884 851.991 338.76 848.239C340.011 845.112 343.764 843.861 346.891 845.737L356.898 850.115C359.4 851.366 361.276 854.493 360.025 858.246Z" fill="white"/>
<path d="M325.627 828.226L307.49 857.622C304.988 862 301.235 862.625 297.483 860.123C293.73 857.621 293.105 853.869 295.607 850.116L311.242 823.848L299.985 816.968C296.857 815.092 295.607 811.965 297.483 808.838C299.359 805.71 302.486 805.085 305.613 807.587L323.126 818.219C327.504 820.721 328.129 824.473 325.627 828.226Z" fill="white"/>
<path d="M288.099 817.594C280.594 826.975 270.587 828.852 261.206 821.347C251.824 814.467 250.573 803.834 256.828 796.329C258.704 793.827 261.206 793.202 264.333 795.704L279.343 807.587L279.969 806.962C282.471 803.834 281.845 800.707 278.718 798.205C276.216 796.329 274.34 795.704 270.587 796.329C268.711 796.329 267.46 796.329 266.209 795.078C264.333 793.202 263.082 790.7 264.958 788.198C265.584 787.573 266.209 786.948 267.46 786.322C271.838 784.446 278.718 786.322 284.347 790.7C293.728 798.206 294.979 808.212 288.099 817.594ZM264.958 806.336C263.082 808.838 263.708 811.965 266.209 814.467C268.711 816.343 271.838 815.718 274.34 813.841L264.958 806.336Z" fill="white"/>
<path d="M260.58 786.948C255.577 791.951 248.697 791.326 241.192 784.446L234.938 779.443L233.687 780.693C231.81 782.57 232.436 785.071 234.312 786.322C235.563 787.573 236.814 788.199 240.567 788.199C242.443 788.199 244.319 788.824 246.195 790.075C248.697 792.577 248.697 795.704 246.821 797.58C246.196 798.206 245.57 798.831 244.945 798.831C240.567 801.333 234.312 798.831 227.432 792.577C219.927 785.697 218.676 776.941 223.68 771.312L236.814 757.552C239.941 754.425 243.694 754.425 246.821 757.552C249.323 760.054 249.948 763.181 247.446 766.308C251.199 765.058 256.202 766.934 258.704 770.061C263.708 774.439 264.959 781.944 260.58 786.948ZM241.817 771.937L239.941 773.814L244.319 777.566C246.195 779.443 248.072 779.443 249.323 778.192C250.574 776.941 250.574 775.065 248.697 773.188C246.821 770.687 243.694 770.061 241.817 771.937Z" fill="white"/>
<path d="M233.688 754.424L214.925 770.685C211.798 773.812 208.045 773.187 205.544 770.06C203.042 766.933 203.042 763.805 206.795 760.678L208.045 760.053C203.667 763.18 199.915 762.555 197.413 760.053C196.788 758.802 196.162 758.176 196.162 756.926C196.162 755.049 196.788 753.798 198.664 751.922C200.54 750.671 201.791 750.046 203.667 750.046C205.544 750.046 206.795 751.297 208.671 753.173C211.173 755.675 212.423 755.675 215.551 753.173L224.932 745.042C228.685 741.915 231.812 742.541 234.939 745.668C237.441 747.544 237.441 751.297 233.688 754.424Z" fill="white"/>
<path d="M214.925 732.534L194.911 746.919C191.158 749.421 188.031 748.795 185.529 745.668C183.027 741.915 183.653 738.163 187.405 735.661L188.031 735.036C182.402 736.286 178.649 735.036 175.522 730.658C170.519 723.778 172.395 716.898 179.275 711.895L193.66 701.888C197.412 698.76 201.165 700.011 203.667 703.138C206.169 706.266 205.543 710.018 201.79 713.145L189.907 721.276C186.78 723.152 186.155 726.28 188.031 728.781C189.907 731.283 193.034 731.908 196.162 729.407L208.045 721.276C211.797 718.774 215.55 719.4 218.052 722.527C219.303 726.28 219.303 730.032 214.925 732.534Z" fill="white"/>
<path d="M183.653 685.627L152.381 702.513C148.003 705.015 144.876 703.764 142.374 700.012C140.498 696.259 141.123 692.506 145.501 690.005L176.773 673.118C181.151 670.616 184.278 671.867 186.78 675.62C189.282 679.998 188.031 683.75 183.653 685.627Z" fill="white"/>
<path d="M174.896 668.74L152.38 678.747C148.628 680.624 144.875 679.373 143.624 675.62C141.748 671.868 142.999 668.115 147.377 666.239L148.002 665.613C142.373 666.239 138.621 663.737 136.744 658.733C133.617 651.228 136.119 644.974 144.25 641.221L160.511 634.342C164.889 632.465 168.016 634.342 169.892 638.094C171.769 641.847 170.518 645.599 166.14 647.476L153.006 653.105C149.879 654.355 148.002 656.857 149.253 659.984C150.504 663.111 153.631 663.737 156.758 662.486L169.892 656.857C174.271 654.981 177.398 656.857 179.274 660.61C179.899 663.112 179.274 666.864 174.896 668.74Z" fill="white"/>
<path d="M153.007 616.829L119.859 625.585C115.481 626.836 111.728 624.959 111.103 620.581L107.35 606.196C104.848 595.564 109.226 586.808 119.859 584.306C130.491 581.804 138.622 587.433 141.749 598.066L143.625 604.945L149.88 603.069C154.258 601.818 158.01 603.694 158.636 608.073C159.887 612.451 158.01 615.578 153.007 616.829ZM132.368 603.069C131.117 598.691 127.99 596.189 123.611 597.44C119.233 598.691 117.357 601.818 118.608 606.196L119.859 609.949L133.618 606.196L132.368 603.069Z" fill="white"/>
<path d="M142.998 573.673L118.607 577.425C114.229 578.051 111.101 575.549 110.476 571.796C109.85 568.044 111.727 564.917 116.105 564.291H117.356C111.727 564.291 109.225 562.415 108.6 558.662C108.6 557.411 108.6 556.16 109.225 554.91C109.851 553.659 111.727 552.408 114.229 551.782C116.105 551.157 117.981 551.783 119.232 553.033C120.483 554.284 121.734 556.161 121.734 558.662C122.359 562.415 123.61 563.04 127.988 562.415L140.497 560.539C144.875 559.913 148.002 561.789 148.627 566.167C149.878 569.92 148.002 573.047 142.998 573.673Z" fill="white"/>
<path d="M126.737 548.031C114.854 548.656 106.723 541.777 106.098 529.893C105.472 518.01 112.352 509.88 124.235 509.254C136.744 508.629 144.249 515.508 144.875 527.392C145.5 539.275 139.246 547.406 126.737 548.031ZM124.861 523.014C118.607 523.639 115.479 525.515 115.479 529.268C115.479 532.395 119.232 534.271 125.486 534.271C131.741 533.646 134.868 531.77 134.868 528.017C134.868 524.265 131.115 522.388 124.861 523.014Z" fill="white"/>
<path d="M96.7172 503.625C92.9646 503.625 90.4629 500.498 90.4629 496.745C90.4629 492.992 93.5901 489.865 97.3427 489.865C101.095 489.865 103.597 492.992 103.597 496.745C102.972 501.123 100.47 503.625 96.7172 503.625ZM112.979 490.491L145.501 491.116C152.381 491.116 157.384 496.12 157.384 502.999V503.625C157.384 509.254 155.508 511.755 151.755 511.755C149.254 511.755 148.003 510.505 147.377 508.003V507.377C147.377 506.127 146.127 504.876 144.876 504.876L112.979 504.25C107.975 504.25 106.099 501.123 106.099 497.37C105.473 492.992 107.975 490.491 112.979 490.491Z" fill="white"/>
<path d="M124.861 485.487C112.978 484.236 106.098 476.105 107.349 464.847C108.6 453.589 116.73 446.71 126.737 447.961C129.865 448.586 131.741 450.462 131.115 453.589L129.239 472.978H129.865C133.617 473.603 136.119 471.102 136.744 467.349C136.744 464.222 136.119 462.346 134.243 459.218C132.992 457.968 132.992 456.717 132.992 454.84C132.992 452.339 135.494 449.837 137.995 450.462C139.246 450.462 139.872 451.088 141.122 451.713C144.875 454.84 146.751 461.095 146.126 468.6C144.875 480.483 137.37 486.737 124.861 485.487ZM122.985 460.469C119.858 460.469 117.356 462.346 116.73 465.473C116.105 468.6 118.607 471.102 121.734 471.727L122.985 460.469Z" fill="white"/>
<path d="M129.239 444.208C117.356 441.707 111.727 432.951 114.229 421.067C116.105 413.562 120.483 407.933 126.112 406.682C127.363 406.682 128.614 406.057 129.865 406.682C132.992 407.308 134.243 410.435 133.617 413.562C132.992 416.064 131.741 417.315 129.239 418.566C126.112 419.816 124.861 421.067 124.236 422.944C123.61 426.696 126.112 429.198 131.741 430.449C137.995 431.7 141.123 430.449 141.748 426.696C142.373 424.194 141.123 422.318 139.872 420.442C137.995 417.94 136.745 416.689 137.37 413.562C137.995 410.435 140.497 408.559 143.624 409.184C144.875 409.184 145.501 409.809 146.752 411.06C151.13 414.813 153.006 421.693 151.13 429.198C149.879 441.081 141.123 446.71 129.239 444.208Z" fill="white"/>
<path d="M131.741 397.301V397.927C131.116 401.054 128.614 402.305 125.487 401.054C122.36 400.428 121.109 397.927 122.36 394.8V394.174L120.483 393.549C116.105 392.298 114.229 389.171 115.48 384.793C116.731 380.414 119.858 379.164 124.236 380.414L126.112 381.04L126.738 378.538C127.363 375.411 129.865 374.16 132.992 375.411C136.119 376.662 137.37 378.538 136.119 381.665L135.494 384.167L148.628 388.545C150.504 389.171 151.755 388.545 152.381 387.294L153.006 386.669C154.257 384.167 156.133 382.916 159.261 383.542C163.013 384.793 163.639 389.796 162.388 394.8C159.886 401.679 155.508 404.181 148.628 402.305L131.741 397.301Z" fill="white"/>
<path d="M151.755 361.026C148.002 359.775 147.377 356.023 149.253 352.895L153.631 342.889C154.882 339.761 158.009 337.885 161.762 339.136C165.514 340.387 166.14 344.139 164.264 347.267L159.886 357.274C158.009 361.026 154.882 362.902 151.755 361.026Z" fill="white"/>
</svg>
