<svg width="227" height="63" viewBox="0 0 227 63" fill="none" xmlns="http://www.w3.org/2000/svg">
<path d="M69.3397 36.399H73.7174C74.5342 36.399 75.0572 35.9555 75.0572 35.1703C75.0572 34.385 74.5198 33.9415 73.7174 33.9415H70.8587V27.3397C70.8587 26.3072 70.307 25.7256 69.3397 25.7256C68.3725 25.7256 67.8208 26.3072 67.8208 27.3397V34.7849C67.8208 35.8174 68.3725 36.399 69.3397 36.399Z" fill="white"/>
<path d="M79.0465 36.399H83.6248C84.4416 36.399 84.9646 35.9555 84.9646 35.1703C84.9646 34.385 84.4272 33.9415 83.6248 33.9415H80.5654V32.262H83.503C84.241 32.262 84.6995 31.8621 84.6995 31.1568C84.6995 30.4516 84.2266 30.0517 83.503 30.0517H80.5654V28.3649H83.6248C84.4272 28.3649 84.9646 27.9214 84.9646 27.1361C84.9646 26.3509 84.4416 25.9074 83.6248 25.9074H79.0465C78.0793 25.9074 77.5276 26.489 77.5276 27.5215V34.7849C77.5276 35.8174 78.0793 36.399 79.0465 36.399Z" fill="white"/>
<path d="M89.0399 36.5808C89.8639 36.5808 90.3224 36.1518 90.609 35.0976L90.7881 34.4359H94.1555L94.3347 35.1485C94.5926 36.1664 95.0583 36.5808 95.9539 36.5808C96.8352 36.5808 97.4728 35.9555 97.4728 35.083C97.4728 34.7486 97.4155 34.4578 97.2722 34.0579L94.9365 27.5724C94.4708 26.2782 93.7257 25.7256 92.4288 25.7256C91.218 25.7256 90.4657 26.3 90.0215 27.5724L87.7073 34.0579C87.5711 34.4287 87.4923 34.8213 87.4923 35.0903C87.4923 36.021 88.0727 36.5808 89.0399 36.5808ZM91.3613 32.1384L92.3858 28.3285H92.4432L93.5179 32.1384H91.3613Z" fill="white"/>
<path d="M101.684 36.5808C102.651 36.5808 103.203 35.9992 103.203 34.9667V32.88H104.414L105.775 35.3448C106.313 36.3118 106.614 36.5808 107.359 36.5808C108.24 36.5808 108.87 35.9919 108.87 35.1703C108.87 34.8068 108.813 34.5668 108.548 34.116L107.466 32.3129C108.448 31.7312 108.935 30.6333 108.935 29.47C108.935 27.2234 107.516 25.9074 104.758 25.9074H101.684C100.717 25.9074 100.165 26.489 100.165 27.5215V34.9667C100.165 35.9992 100.717 36.5808 101.684 36.5808ZM103.203 30.8442V28.1831H104.464C105.281 28.1831 105.833 28.7429 105.833 29.5209C105.833 30.3134 105.31 30.8442 104.457 30.8442H103.203Z" fill="white"/>
<path d="M113.068 36.5808C113.97 36.5808 114.501 36.0428 114.501 35.054V30.8733H114.558L118.09 35.7374C118.52 36.3336 118.928 36.5808 119.509 36.5808C120.411 36.5808 120.906 36.0791 120.906 35.1557V27.2524C120.906 26.2636 120.383 25.7256 119.473 25.7256C118.57 25.7256 118.04 26.2636 118.04 27.2524V31.3459H117.983L114.479 26.569C114.042 25.9801 113.619 25.7256 113.068 25.7256C112.136 25.7256 111.635 26.22 111.635 27.1507V35.054C111.635 36.0428 112.158 36.5808 113.068 36.5808Z" fill="white"/>
<path d="M129.587 36.5808C130.554 36.5808 131.106 35.9992 131.106 34.9667V27.3397C131.106 26.3072 130.554 25.7256 129.587 25.7256C128.619 25.7256 128.068 26.3072 128.068 27.3397V34.9667C128.068 35.9992 128.619 36.5808 129.587 36.5808Z" fill="white"/>
<path d="M135.439 36.5808C136.342 36.5808 136.872 36.0428 136.872 35.054V30.8733H136.929L140.461 35.7374C140.891 36.3336 141.3 36.5808 141.88 36.5808C142.783 36.5808 143.277 36.0791 143.277 35.1557V27.2524C143.277 26.2636 142.754 25.7256 141.844 25.7256C140.941 25.7256 140.411 26.2636 140.411 27.2524V31.3459H140.354L136.85 26.569C136.413 25.9801 135.99 25.7256 135.439 25.7256C134.507 25.7256 134.006 26.22 134.006 27.1507V35.054C134.006 36.0428 134.529 36.5808 135.439 36.5808Z" fill="white"/>
<path d="M151.958 36.5808C152.925 36.5808 153.477 35.9992 153.477 34.9667V33.5344H154.953C157.367 33.5344 159.008 32.0439 159.008 29.7318C159.008 27.3979 157.46 25.9074 155.16 25.9074H151.958C150.991 25.9074 150.439 26.489 150.439 27.5215V34.9667C150.439 35.9992 150.991 36.5808 151.958 36.5808ZM153.477 31.2586V28.2267H154.351C155.34 28.2267 155.941 28.7429 155.941 29.739C155.941 30.7424 155.34 31.2586 154.329 31.2586H153.477Z" fill="white"/>
<path d="M163.069 36.5808C164.036 36.5808 164.588 35.9992 164.588 34.9667V32.88H165.799L167.16 35.3448C167.697 36.3118 167.998 36.5808 168.743 36.5808C169.625 36.5808 170.255 35.9919 170.255 35.1703C170.255 34.8068 170.198 34.5668 169.933 34.116L168.851 32.3129C169.832 31.7312 170.32 30.6333 170.32 29.47C170.32 27.2234 168.901 25.9074 166.143 25.9074H163.069C162.102 25.9074 161.55 26.489 161.55 27.5215V34.9667C161.55 35.9992 162.102 36.5808 163.069 36.5808ZM164.588 30.8442V28.1831H165.849C166.666 28.1831 167.217 28.7429 167.217 29.5209C167.217 30.3134 166.694 30.8442 165.842 30.8442H164.588Z" fill="white"/>
<path d="M177.977 36.5808C181.173 36.5808 183.186 34.5086 183.186 31.1568C183.186 27.805 181.173 25.7256 177.977 25.7256C174.782 25.7256 172.769 27.805 172.769 31.1568C172.769 34.5086 174.775 36.5808 177.977 36.5808ZM177.977 34.1233C176.702 34.1233 175.864 32.9673 175.864 31.1568C175.864 29.3391 176.709 28.1831 177.977 28.1831C179.245 28.1831 180.091 29.3391 180.091 31.1568C180.091 32.9673 179.253 34.1233 177.977 34.1233Z" fill="white"/>
<path d="M189.332 36.5808C191.847 36.5808 193.351 35.2212 193.351 32.7564V27.3397C193.351 26.3072 192.8 25.7256 191.833 25.7256C190.865 25.7256 190.314 26.3072 190.314 27.3397V32.7346C190.314 33.5635 189.955 33.9997 189.289 33.9997C188.752 33.9997 188.386 33.7089 188.229 33.1781C187.992 32.3856 187.562 32.0439 186.81 32.0439C185.972 32.0439 185.406 32.6037 185.406 33.4471C185.406 33.8179 185.477 34.1451 185.635 34.5305C186.237 35.8392 187.548 36.5808 189.332 36.5808Z" fill="white"/>
<path d="M197.935 36.399H202.514C203.33 36.399 203.854 35.9555 203.854 35.1703C203.854 34.385 203.316 33.9415 202.514 33.9415H199.454V32.262H202.392C203.13 32.262 203.588 31.8621 203.588 31.1568C203.588 30.4516 203.116 30.0517 202.392 30.0517H199.454V28.3649H202.514C203.316 28.3649 203.854 27.9214 203.854 27.1361C203.854 26.3509 203.33 25.9074 202.514 25.9074H197.935C196.968 25.9074 196.417 26.489 196.417 27.5215V34.7849C196.417 35.8174 196.968 36.399 197.935 36.399Z" fill="white"/>
<path d="M211.554 36.5808C213.567 36.5808 215.309 35.5702 215.91 34.0506C216.018 33.7816 216.075 33.5053 216.075 33.2435C216.075 32.4219 215.509 31.8839 214.642 31.8839C214.005 31.8839 213.639 32.1384 213.331 32.8C212.894 33.7307 212.314 34.1597 211.483 34.1597C210.222 34.1597 209.441 33.04 209.441 31.1423C209.441 29.2664 210.229 28.1467 211.475 28.1467C212.271 28.1467 212.844 28.5612 213.302 29.4555C213.632 30.1026 214.033 30.3643 214.692 30.3643C215.488 30.3643 216.011 29.8554 216.011 29.0701C216.011 28.6993 215.903 28.314 215.695 27.9504C214.879 26.489 213.417 25.7256 211.44 25.7256C208.316 25.7256 206.345 27.6887 206.345 31.1496C206.345 34.6104 208.273 36.5808 211.554 36.5808Z" fill="white"/>
<path d="M222.615 36.5808C223.582 36.5808 224.134 35.9992 224.134 34.9667V28.3649H225.66C226.463 28.3649 227 27.9214 227 27.1361C227 26.3509 226.477 25.9074 225.66 25.9074H219.57C218.753 25.9074 218.23 26.3509 218.23 27.1361C218.23 27.9214 218.768 28.3649 219.57 28.3649H221.096V34.9667C221.096 35.9992 221.648 36.5808 222.615 36.5808Z" fill="white"/>
<g clip-path="url(#clip0_342_832)">
<path d="M5.29865 48.6422H21.4394C23.9665 48.6422 25.5968 47.2359 25.5968 44.8368C25.5968 42.4378 23.9665 41.0315 21.4394 41.0315H9.94522V15.7176C9.94522 12.5741 8.23333 10.7542 5.29865 10.7542C2.36397 10.7542 0.570557 12.5741 0.570557 15.7176V43.6787C0.570557 46.8222 2.28245 48.6422 5.29865 48.6422Z" fill="white"/>
<path d="M19.9722 38.4671C22.9069 38.4671 24.6188 36.6472 24.6188 33.5036V4.9635C24.6188 1.81995 22.9069 0 19.9722 0C17.0376 0 15.2441 1.81995 15.2441 4.9635V33.5036C15.3257 36.6472 17.0376 38.4671 19.9722 38.4671Z" fill="white"/>
<path d="M34.6456 48.6422C37.5803 48.6422 39.2922 46.8222 39.2922 43.6787V37.1434H45.3245C53.4764 37.1434 59.1012 31.9317 59.1012 23.9901C59.1012 15.9658 53.721 10.7542 45.8952 10.7542H34.6456C31.7109 10.7542 29.9175 12.5741 29.9175 15.7176V43.6787C29.999 46.8222 31.7109 48.6422 34.6456 48.6422ZM39.3737 30.0291V18.0339H43.4496C47.3625 18.0339 49.7266 20.1021 49.7266 23.9901C49.7266 27.8782 47.3625 29.9463 43.3681 29.9463H39.3737V30.0291Z" fill="white"/>
<path d="M35.5423 62.7056C30.2435 62.7056 25.1894 60.2239 21.8471 56.0049C20.4613 54.1849 20.7058 51.6205 22.4992 50.2142C24.2927 48.8078 26.8197 49.056 28.2056 50.876C30.0805 53.275 33.0152 54.5986 36.0314 54.4331C38.477 54.2677 40.7595 53.1923 42.4714 51.2896C44.1833 49.3869 44.9985 46.9879 44.8354 44.4234C44.6724 42.1071 46.3843 40.2044 48.6668 40.039C50.8678 39.8735 52.8243 41.6107 52.9873 43.927C53.2319 48.6424 51.683 53.1922 48.5853 56.7494C45.4876 60.3066 41.1671 62.4575 36.5205 62.7056C36.1944 62.7056 35.8683 62.7056 35.5423 62.7056Z" fill="white"/>
</g>
<defs>
<clipPath id="clip0_342_832">
<rect width="59.5088" height="62.871" fill="white"/>
</clipPath>
</defs>
</svg>
